inDegrees=no
num_controls=7
num_derivatives=13
num_iterations=105
num_multipliers=7
num_parameters=0
num_slacks=7
num_states=26
objective=0.431113
objective_accelerations=0.049975
objective_balance=0.006874
objective_effort=0.031212
objective_height=0.341881
objective_ligament=0.001171
solver_duration=1351.168963
status=Solve_Succeeded
success=true
DataType=double
version=3
OpenSimVersion=4.5
endheader
time	/jointset/ground_pelvis/pelvis_tilt/value	/jointset/ground_pelvis/pelvis_tx/value	/jointset/ground_pelvis/pelvis_ty/value	/jointset/hip_l/hip_flexion_l/value	/jointset/hip_l/hip_adduction_l/value	/jointset/hip_l/hip_rotation_l/value	/jointset/back/lumbar_extension/value	/jointset/patellofemoral_l/patellar_flexion_l/value	/jointset/knee_l/knee_flexion_l/value	/jointset/knee_l/knee_adduction_l/value	/jointset/knee_l/knee_rotation_l/value	/jointset/ankle_l/ankle_angle_l/value	/jointset/subtalar_l/subtalar_angle_l/value	/jointset/ground_pelvis/pelvis_tilt/speed	/jointset/ground_pelvis/pelvis_tx/speed	/jointset/ground_pelvis/pelvis_ty/speed	/jointset/hip_l/hip_flexion_l/speed	/jointset/hip_l/hip_adduction_l/speed	/jointset/hip_l/hip_rotation_l/speed	/jointset/back/lumbar_extension/speed	/jointset/patellofemoral_l/patellar_flexion_l/speed	/jointset/knee_l/knee_flexion_l/speed	/jointset/knee_l/knee_adduction_l/speed	/jointset/knee_l/knee_rotation_l/speed	/jointset/ankle_l/ankle_angle_l/speed	/jointset/subtalar_l/subtalar_angle_l/speed	/forceset/tau_hip_flexion_l	/forceset/tau_hip_adduction_l	/forceset/tau_hip_rotation_l	/forceset/tau_knee_flexion_l	/forceset/tau_ankle_angle_l	/forceset/tau_subtalar_angle_l	/forceset/tau_lumbar_extension	lambda_cid13_p0	lambda_cid13_p1	lambda_cid13_p2	lambda_cid13_p3	lambda_cid13_p4	lambda_cid13_p5	lambda_cid14_p0	/jointset/ground_pelvis/pelvis_tilt/accel	/jointset/ground_pelvis/pelvis_tx/accel	/jointset/ground_pelvis/pelvis_ty/accel	/jointset/hip_l/hip_flexion_l/accel	/jointset/hip_l/hip_adduction_l/accel	/jointset/hip_l/hip_rotation_l/accel	/jointset/back/lumbar_extension/accel	/jointset/patellofemoral_l/patellar_flexion_l/accel	/jointset/knee_l/knee_flexion_l/accel	/jointset/knee_l/knee_adduction_l/accel	/jointset/knee_l/knee_rotation_l/accel	/jointset/ankle_l/ankle_angle_l/accel	/jointset/subtalar_l/subtalar_angle_l/accel	gamma_cid13_p0	gamma_cid13_p1	gamma_cid13_p2	gamma_cid13_p3	gamma_cid13_p4	gamma_cid13_p5	gamma_cid14_p0
1.5	-0.3365679886088342	-0.03148729355979177	0.7649724162949371	1.173323348331904	-0.3052344684438201	0.01058072046597469	-0.338465864831576	0.8180250267205288	0.8180250267203449	-0.1734675006142273	0.167760255647868	0.162721604397692	-0.01996384463013298	0.4268405539515067	0.1579823244589806	0.5045257481441822	-2.095713850764046	-0.01306604422827218	-0.6976978866436565	0.57337273116305	-2.088997255079363	-2.088997255080015	0.005905640166313568	-0.04051519803178685	-0.5432447514125146	-0.1037872029296558	-0.1925526413463156	0.02310908497923487	-0.02606142371324052	-0.2560008647201412	0.1010198640154163	0.03551991531258254	0.1914270504373915	-5.855502705521985	-16.97596050007317	5.245188384443971	-2.49805789081647	-606.9491918193147	-56.27462642698877	-20.43558366646402	0.4992082165568235	0.5471328504089072	-0.4116757397789453	-1.319965006125201	0.6750253682188011	-0.3707732296234105	1.597358118230814	-1.345558977431968	-1.345558977431991	0.05138403102003125	-0.08223922017205525	-0.5480888049837188	0.6975603772875235	4.081069246087799e-07	4.044787757639299e-07	-2.536027919932838e-06	-2.809491074140093e-07	4.84268626814825e-07	2.478961374829409e-07	3.955151772620455e-07
1.51	-0.3322747608077969	-0.02988026357697745	0.7699960688609417	1.152302310094406	-0.3053324143612085	0.003588227357779376	-0.3326534863870345	0.7970700513642359	0.7970700513640944	-0.1734097279668051	0.1673507472257515	0.1572621382822564	-0.02096820687640377	0.4317481396271532	0.16340351040919	0.5000999399558262	-2.108197926168022	-0.006499380536755043	-0.7007179817950899	0.5890230966978078	-2.101695657778665	-2.101695657779274	0.005653224264546963	-0.04137947373882309	-0.5485548710328786	-0.09706366610559498	-0.1865001418665638	0.02263764774810078	-0.02590916561468747	-0.2529626782043538	0.1022680861896366	0.0353852781803272	0.1863395239835592	-5.230201329473521	-17.12823914839423	5.385134696842133	-2.635647628723387	-602.6594757734659	-56.53606812578557	-21.71123821633732	0.4780434825645463	0.5365282043549009	-0.4736491032233553	-1.168195017250756	0.6514050656128789	-0.2548271112618503	1.536896614006298	-1.186743417550258	-1.186743417543766	-0.06293262332476547	-0.08693507723490984	-0.5084463857376798	0.6632231876867791	4.402659700943179e-07	4.8117899543086e-07	-2.656705113518093e-06	-2.902515133564725e-07	5.211182737134453e-07	3.333933411247087e-07	4.191379130371748e-07
1.52	-0.3279341552021032	-0.02821963838725543	0.7749723401960911	1.131165317860927	-0.3053639100024819	-0.003431906592601867	-0.3266870001185635	0.7759971394806765	0.7759971394805768	-0.1733543551229123	0.1669329133803087	0.1517523764015826	-0.02190463918388967	0.4363161148826359	0.1687013658405209	0.4950495019730999	-2.118904649960673	0.0002240109945485113	-0.7032260550808638	0.6041942959488844	-2.112584560532803	-2.112584560533369	0.005425679460791064	-0.0421802826964783	-0.5533039044602408	-0.0902012151726773	-0.1804476423868068	0.0221662105169718	-0.02575690751617761	-0.2499244916885591	0.1035163083638591	0.03525064104807821	0.1812519975297303	-4.609212615884022	-17.28184207045735	5.52766926885556	-2.794201377557419	-598.4630176973006	-56.88499562057503	-22.98149550022904	0.4312861325241086	0.5224667466332161	-0.5366016986530149	-0.9644946838599481	0.706370936176092	-0.2683688564914501	1.50152486149459	-0.9836589883990853	-0.9836589883991339	0.05635825062217424	-0.06954587029585393	-0.4358715663833869	0.7253431990589028	4.907546216583505e-07	5.522700540940048e-07	-2.878652677948576e-06	-3.14444190514271e-07	5.772304243166887e-07	4.313648048662545e-07	4.568060812971658e-07
1.53	-0.3235495205980929	-0.02650667837735547	0.7798950672255662	1.109929946653666	-0.3053277734782165	-0.01047406150070868	-0.3205713864024824	0.7548242299318558	0.75482422993179	-0.1733020037271049	0.1665071847615518	0.1461978698323451	-0.02277219477091267	0.4405486407802637	0.1738669067944613	0.4893970821459626	-2.127864642997632	0.007020432154653967	-0.7051208176180891	0.6188404044321487	-2.121681525030983	-2.12168152503152	0.005051446316727059	-0.04295664291512283	-0.5574930570893581	-0.08329403434885907	-0.1743130633968049	0.0215597326248483	-0.02555036037012542	-0.2470945465744156	0.1049956013304739	0.03486203314616195	0.1760937744099919	-3.929697765824013	-17.32603504974895	5.642069711238539	-2.956565877428632	-594.3960891456082	-57.07647788052068	-24.24448350862826	0.4099639113345792	0.5099631921437103	-0.5942464300295942	-0.815939177769389	0.6692865997438392	-0.136929022493809	1.432947416490782	-0.8254490609988454	-0.8254490609945281	-0.08334117104958477	-0.07970101354874159	-0.3947958477323013	0.676077914564841	5.607184796807835e-07	6.174013791906276e-07	-3.208200011402111e-06	-3.54457780838363e-07	6.538089851060937e-07	5.425901699638142e-07	5.093975215723221e-07
1.54	-0.3191244151165151	-0.02474278987344223	0.7847583331957131	1.088614138003206	-0.3052230709635859	-0.01753254384821861	-0.3143119528866187	0.7335698039619599	0.7335698039619266	-0.1732532000775676	0.1660740885574237	0.1406045999895056	-0.02357014407159317	0.4444102903959862	0.1788870646431756	0.4831572901074103	-2.134992138600811	0.01393720906739983	-0.7064915429615429	0.632958255905348	-2.128887844748018	-2.128887844748527	0.004716130207508514	-0.04365379976976558	-0.5610565591807315	-0.07627995790417851	-0.1681784844067973	0.02095325473273118	-0.02534381322413212	-0.2442646014602622	0.1064748942970915	0.03447342524425357	0.1709355512902568	-3.25256349231642	-17.37371621638856	5.761489102762096	-3.15296955484371	-590.3994486217822	-57.37241906715381	-25.49896047899742	0.3571108761430874	0.4933901255879904	-0.6540761409360105	-0.597995197103952	0.730442086704181	-0.1635614177371494	1.395873459481624	-0.6055300321702083	-0.6055300321702174	0.06414165759126755	-0.05370519749549705	-0.3107414588345974	0.7467223232313642	5.978203653085115e-07	7.444444038262798e-07	-3.346977546482205e-06	-3.620956259227357e-07	7.026080488828289e-07	6.57607318262208e-07	5.393710238215751e-07
1.55	-0.3146625452761642	-0.02292945349728379	0.7895563778358077	1.067236001831481	-0.305048858259664	-0.02460223912232194	-0.3079141883560738	0.7122525713792101	0.7122525713792348	-0.1732078314805491	0.1656345287435134	0.1349787495778248	-0.024297705431232	0.4478963699606404	0.1837532720702796	0.4763623315699285	-2.140334066731137	0.02090526748137893	-0.7073206601094975	0.6464924708616038	-2.134253294757082	-2.134253294757504	0.004320528710540779	-0.04427617215951822	-0.5640095051516806	-0.0692355184867071	-0.161904454920694	0.01985639125125577	-0.02509752717031403	-0.2418753742944047	0.1083618360581967	0.03403530036603478	0.1656775193634899	-2.463705493048139	-17.41954419185028	5.880713562794081	-3.380415157631456	-586.6655925889198	-57.75499719660793	-26.74418595368077	0.3343143072499948	0.4791320833651788	-0.705455915532615	-0.4570659517158268	0.6803481388537549	-0.02305072117852169	1.316868612419597	-0.4563550203690627	-0.456355020356064	-0.09696955740444467	-0.06857193604270799	-0.2719673340340089	0.6830334355576543	5.97059543611908e-07	9.428204735829837e-07	-3.265955096479868e-06	-3.324309819265641e-07	7.194003008840983e-07	7.769932602485188e-07	5.432847279105498e-07
1.56	-0.310167823078041	-0.02106827584043557	0.7942838228494519	1.045813491512311	-0.3048048928875791	-0.03167631833947685	-0.3013841470562216	0.6908908237893523	0.6908908237894327	-0.1731675305993184	0.1651883314704334	0.129326490472873	-0.0249548766597856	0.4509807619502269	0.1884553207811313	0.4690373648173146	-2.143866968090223	0.02788774269971644	-0.7073683315716083	0.6594136097667387	-2.13779084616993	-2.137790846170265	0.003702587051027794	-0.04498129160237181	-0.5663382978349877	-0.0622019316871308	-0.1556304254345883	0.01875952776978085	-0.02485124111655147	-0.2394861471285394	0.1102487778193023	0.03359717548781638	0.160419487436725	-1.675193552391029	-17.46889694163963	6.00459754789396	-3.64952481806398	-582.9755850561008	-58.2398125332981	-27.97909675497156	0.2767733611295572	0.4605583823374878	-0.7600777839624331	-0.23618984285624	0.7333254475758675	-0.007272280568453603	1.273258249257474	-0.2399503129271429	-0.2399503129270977	0.01967362508221919	-0.07025460811568771	-0.1859108013062078	0.7445517996523373	5.09973420469047e-07	1.233854890791129e-06	-2.767581858484244e-06	-2.280619194253031e-07	6.503139461243452e-07	8.499964647123469e-07	4.941534367001614e-07
